<?xml version="1.0" standalone="no"?>
<!DOCTYPE svg PUBLIC "-//W3C//DTD SVG 20010904//EN"
 "http://www.w3.org/TR/2001/REC-SVG-20010904/DTD/svg10.dtd">
<svg version="1.0" xmlns="http://www.w3.org/2000/svg"
 width="1000.000000pt" height="1000.000000pt" viewBox="0 0 1000.000000 1000.000000"
 preserveAspectRatio="xMidYMid meet">

<g transform="translate(0.000000,1000.000000) scale(0.100000,-0.100000)"
fill="#0C996E" stroke="none">
<path d="M4848 9995 c-4 -4 -42 -7 -85 -6 -43 1 -121 -3 -173 -9 -52 -6 -122
-13 -155 -16 -51 -4 -153 -18 -307 -41 -21 -3 -38 -10 -38 -15 0 -5 -4 -7 -9
-3 -12 7 -92 -5 -87 -14 2 -3 -10 -6 -27 -7 -47 -1 -316 -67 -311 -76 3 -4 -1
-6 -8 -3 -18 7 -130 -29 -121 -39 4 -4 1 -4 -8 -1 -8 3 -87 -20 -174 -51 -88
-30 -168 -58 -177 -61 -10 -3 -15 -10 -11 -16 4 -7 0 -8 -12 -4 -9 4 -23 3
-29 -1 -6 -5 -32 -17 -58 -27 -26 -10 -45 -21 -42 -26 3 -5 -2 -6 -10 -3 -9 3
-16 1 -16 -6 0 -6 -4 -9 -9 -5 -13 7 -62 -16 -55 -26 3 -5 -1 -7 -8 -4 -18 7
-364 -171 -360 -185 1 -6 -2 -9 -7 -5 -11 6 -61 -22 -74 -42 -5 -8 -13 -11
-18 -7 -6 3 -24 -7 -41 -22 -17 -16 -27 -23 -23 -15 5 8 -10 2 -32 -15 -23
-16 -39 -32 -37 -36 3 -4 -1 -6 -8 -3 -17 7 -243 -146 -243 -164 0 -8 -7 -16
-15 -18 -13 -4 -13 -3 0 6 8 6 11 11 7 11 -17 0 -237 -176 -233 -186 3 -7 -5
-20 -17 -31 l-22 -18 19 23 c11 12 15 22 9 22 -9 0 -29 -16 -135 -109 -15 -13
-25 -28 -22 -33 3 -5 2 -7 -3 -6 -10 3 -63 -36 -63 -47 0 -3 6 -3 12 1 7 4 5
-2 -5 -14 -11 -12 -16 -26 -12 -34 6 -10 5 -10 -5 -1 -11 10 -11 15 0 28 24
29 -6 15 -39 -19 -31 -32 -32 -35 -14 -45 10 -6 13 -11 6 -11 -6 0 -15 5 -19
11 -8 14 -176 -151 -170 -167 2 -6 0 -17 -6 -25 -8 -11 -9 -10 -4 4 3 9 3 17
0 17 -10 0 -49 -54 -46 -63 1 -5 -1 -6 -6 -3 -14 8 -65 -51 -57 -65 5 -7 4
-10 -2 -6 -6 4 -27 -11 -47 -33 -38 -42 -50 -76 -17 -46 15 14 21 15 27 4 4
-7 4 -10 -1 -6 -4 4 -15 2 -23 -4 -8 -7 -21 -13 -28 -13 -17 0 -155 -180 -151
-197 2 -7 2 -9 -1 -5 -5 10 -32 -12 -32 -27 0 -6 5 -4 11 4 9 13 10 13 6 0 -2
-8 -10 -15 -18 -15 -12 0 -161 -206 -176 -245 -4 -8 -18 -30 -31 -47 -13 -18
-21 -33 -16 -33 4 0 -3 -11 -15 -24 -14 -15 -20 -30 -15 -38 4 -7 3 -10 -1 -5
-10 9 -57 -71 -49 -84 3 -5 0 -8 -6 -7 -17 4 -191 -342 -184 -367 4 -14 3 -16
-4 -7 -6 9 -15 -1 -30 -39 -12 -28 -19 -56 -15 -62 3 -5 2 -7 -4 -4 -5 3 -15
-11 -22 -31 -8 -20 -24 -59 -36 -87 -20 -46 -94 -250 -99 -278 -2 -7 -8 -25
-15 -41 -39 -96 -156 -577 -147 -603 3 -7 2 -13 -3 -13 -5 0 -11 -19 -15 -42
-3 -24 -11 -74 -16 -113 -68 -455 -73 -951 -15 -1405 21 -162 37 -250 46 -256
5 -2 6 -11 3 -18 -11 -29 131 -591 158 -623 6 -7 8 -13 5 -13 -7 0 71 -226
100 -290 11 -25 26 -62 34 -82 7 -20 17 -34 22 -31 6 3 7 1 4 -4 -4 -6 3 -34
15 -62 15 -38 24 -48 30 -39 7 9 8 7 4 -7 -7 -25 167 -371 184 -367 6 1 9 -2
6 -7 -8 -13 39 -93 49 -84 4 5 5 2 1 -5 -5 -8 1 -23 15 -38 12 -13 19 -24 15
-24 -5 0 3 -15 16 -32 13 -18 27 -40 31 -48 15 -39 164 -245 176 -245 8 0 16
-7 18 -15 4 -13 3 -13 -6 0 -6 8 -11 10 -11 4 0 -15 27 -37 32 -27 3 4 3 2 1
-5 -4 -17 134 -197 151 -197 7 0 20 -6 28 -13 8 -6 19 -8 23 -4 5 4 5 1 1 -6
-6 -11 -12 -10 -27 4 -33 30 -21 -4 17 -46 20 -22 41 -37 47 -33 6 4 7 1 2 -6
-8 -14 43 -73 57 -65 5 3 7 2 6 -3 -3 -9 36 -63 46 -63 3 0 3 8 0 17 -5 14 -4
15 4 4 6 -8 8 -19 6 -26 -6 -16 294 -307 308 -299 6 4 8 3 4 -4 -9 -14 32 -42
53 -35 12 4 13 3 3 -5 -10 -7 -1 -20 38 -55 54 -49 87 -64 54 -24 l-19 22 22
-18 c12 -11 20 -24 17 -31 -2 -6 47 -51 110 -99 114 -86 134 -98 120 -74 -4 7
-3 9 2 4 5 -5 9 -14 9 -20 0 -16 227 -168 243 -162 7 3 11 1 8 -3 -2 -4 14
-20 37 -36 22 -17 37 -23 32 -15 -4 8 6 1 23 -15 19 -18 35 -25 44 -20 7 4 10
3 5 -1 -9 -10 71 -57 84 -49 5 3 8 0 7 -6 -4 -14 342 -192 360 -185 7 3 11 1
8 -4 -7 -10 42 -33 55 -26 5 4 9 1 9 -5 0 -7 7 -9 16 -6 8 3 13 2 10 -3 -3 -5
16 -16 42 -26 26 -10 52 -22 58 -27 6 -4 20 -5 30 -2 11 4 15 3 11 -1 -4 -5
25 -22 65 -37 135 -53 412 -138 427 -133 9 3 12 3 8 -1 -9 -9 37 -22 252 -70
85 -19 160 -33 168 -30 7 3 13 2 13 -3 0 -6 75 -20 261 -47 21 -3 40 -1 44 5
3 6 12 11 18 11 7 0 6 -4 -3 -10 -12 -8 -11 -10 8 -12 49 -4 81 -7 172 -19
125 -15 695 -15 820 0 52 7 102 13 110 13 74 2 346 42 380 55 8 3 20 5 27 4
11 -2 268 55 371 81 29 8 50 17 46 20 -3 4 3 4 15 1 13 -3 21 -1 21 6 0 7 4
10 9 7 10 -6 265 74 389 122 40 15 69 32 65 37 -4 4 0 5 11 1 10 -3 24 -2 30
2 6 5 32 17 58 27 26 10 45 21 42 26 -3 5 2 6 10 3 9 -3 16 -1 16 6 0 6 4 9 9
5 14 -8 61 16 54 28 -3 6 -1 7 5 3 18 -11 325 146 309 157 -8 6 -6 7 6 3 23
-7 60 11 51 26 -4 7 -3 8 4 4 12 -7 62 20 75 41 5 8 13 11 18 7 6 -3 24 7 41
22 17 16 27 23 23 15 -5 -8 10 -2 32 15 23 16 39 32 37 36 -3 4 1 6 8 3 17 -7
243 146 243 164 0 8 7 16 15 18 13 4 13 3 0 -6 -8 -6 -11 -11 -7 -11 11 0 205
148 287 219 97 85 115 103 112 112 -1 5 1 8 6 7 9 -3 62 37 62 47 0 3 -5 3
-12 -1 -6 -4 -3 4 8 18 10 14 21 24 23 22 2 -2 -2 -10 -9 -19 -7 -8 -9 -15 -4
-15 15 0 244 235 240 246 -2 6 0 17 6 25 8 11 9 10 4 -3 -3 -10 -3 -18 0 -18
10 0 49 54 46 63 -1 5 2 6 7 3 5 -3 41 31 81 77 78 89 250 313 250 325 0 4 -5
0 -11 -8 -9 -13 -10 -13 -6 0 2 8 10 15 18 15 12 0 161 206 176 245 4 8 18 30
31 48 13 17 21 32 16 32 -4 0 3 11 15 24 14 15 20 30 15 38 -4 7 -3 10 1 5 10
-9 57 71 49 84 -3 5 0 8 6 7 17 -4 191 342 184 367 -4 14 -3 16 4 7 6 -9 15 1
30 39 12 28 19 56 15 62 -3 5 -2 7 4 4 5 -3 15 11 22 31 8 20 23 57 34 82 29
64 107 290 100 290 -3 0 -1 6 5 13 27 33 173 609 158 624 -3 3 -2 11 3 17 22
28 79 487 84 670 5 209 -4 564 -18 703 -21 210 -52 424 -64 436 -5 5 -7 15 -5
22 11 29 -131 590 -158 622 -6 7 -8 13 -5 13 7 0 -71 226 -100 290 -11 25 -26
62 -34 82 -7 20 -17 34 -22 31 -6 -3 -7 -1 -4 4 4 6 -3 34 -15 62 -15 38 -24
48 -30 39 -7 -9 -8 -7 -4 7 7 25 -167 371 -184 367 -6 -1 -9 2 -6 7 8 13 -39
93 -49 84 -4 -5 -5 -2 -1 5 5 8 -1 23 -15 38 -12 13 -19 24 -15 24 5 0 -3 15
-16 33 -13 17 -27 39 -31 47 -15 39 -164 245 -176 245 -8 0 -16 7 -18 15 -4
13 -3 13 7 0 6 -8 10 -10 8 -5 -9 28 -174 235 -184 231 -7 -3 -20 5 -31 17
l-18 22 23 -19 c35 -30 26 0 -14 44 -20 22 -41 37 -47 33 -6 -4 -7 -1 -2 6 8
14 -43 73 -57 65 -5 -3 -7 -2 -6 3 3 9 -36 63 -46 63 -3 0 -3 -8 0 -17 5 -14
4 -15 -4 -4 -6 8 -8 19 -6 25 4 11 -225 246 -240 246 -5 0 -3 -7 4 -15 7 -9
11 -17 9 -19 -2 -2 -13 8 -23 22 -11 14 -14 22 -8 18 7 -4 12 -4 12 -1 0 10
-53 50 -62 48 -5 -2 -7 1 -5 6 1 5 -10 19 -24 32 -98 91 -120 109 -130 109 -7
0 -4 -9 7 -22 l19 -23 -22 18 c-12 11 -20 24 -17 31 5 14 -223 189 -236 181
-6 -4 -9 -1 -8 6 4 16 -223 171 -240 164 -7 -3 -11 -1 -8 3 2 4 -14 20 -37 36
-22 17 -37 23 -32 15 4 -8 -6 -1 -23 15 -19 18 -35 25 -44 20 -7 -4 -10 -3 -5
1 9 11 -72 57 -86 48 -6 -3 -7 -1 -3 5 9 15 -28 33 -51 26 -12 -4 -14 -3 -6 3
16 11 -291 168 -309 157 -6 -4 -8 -3 -5 3 7 12 -40 36 -54 28 -5 -4 -9 -1 -9
5 0 7 -7 9 -16 6 -8 -3 -13 -2 -10 3 3 5 -16 16 -42 26 -26 10 -52 22 -58 27
-6 4 -20 5 -30 2 -11 -4 -15 -3 -11 1 4 5 -25 22 -65 37 -124 48 -379 128
-389 122 -5 -3 -9 0 -9 7 0 7 -8 9 -21 6 -12 -3 -18 -3 -15 1 4 3 -15 12 -41
18 -102 27 -364 85 -376 83 -6 -1 -19 1 -27 4 -34 13 -306 53 -380 55 -8 0
-55 5 -105 11 -117 14 -558 26 -567 16z m-281 -41 c-3 -3 -12 -4 -19 -1 -8 3
-5 6 6 6 11 1 17 -2 13 -5z m-557 -94 c8 -5 11 -10 5 -10 -5 0 -17 5 -25 10
-8 5 -10 10 -5 10 6 0 17 -5 25 -10z m2010 6 c0 -2 -7 -7 -16 -10 -8 -3 -12
-2 -9 4 6 10 25 14 25 6z m-2347 -83 c-7 -2 -19 -2 -25 0 -7 3 -2 5 12 5 14 0
19 -2 13 -5z m2644 1 c-3 -3 -12 -4 -19 -1 -8 3 -5 6 6 6 11 1 17 -2 13 -5z
m40 0 c-3 -3 -12 -4 -19 -1 -8 3 -5 6 6 6 11 1 17 -2 13 -5z m1388 -644 c-3
-5 -12 -10 -18 -10 -7 0 -6 4 3 10 19 12 23 12 15 0z m-5596 -64 c9 -11 9 -16
-1 -22 -7 -4 -10 -4 -6 1 4 4 3 14 -3 22 -6 7 -9 13 -6 13 2 0 10 -6 16 -14z
m5711 -1 c-5 -7 -9 -14 -7 -16 1 -2 0 -3 -2 -1 -11 7 -7 29 5 29 9 0 11 -4 4
-12z m-5820 -95 c8 -5 11 -10 5 -10 -5 0 -17 5 -25 10 -8 5 -10 10 -5 10 6 0
17 -5 25 -10z m5935 0 c-3 -5 -12 -10 -18 -10 -7 0 -6 4 3 10 19 12 23 12 15
0z m-6315 -324 c0 -2 -7 -7 -16 -10 -8 -3 -12 -2 -9 4 6 10 25 14 25 6z m6815
-86 c-3 -5 -12 -10 -18 -10 -7 0 -6 4 3 10 19 12 23 12 15 0z m-6958 -73 c-2
-6 -13 -11 -25 -12 -21 -2 -21 -1 -6 16 17 19 38 16 31 -4z m7029 -6 c-7 -10
-51 -9 -62 2 -3 3 8 4 25 2 19 -2 31 0 31 7 0 6 3 9 6 5 3 -3 3 -10 0 -16z
m-2720 -191 c71 -6 174 -20 229 -31 55 -10 101 -19 103 -19 2 0 0 6 -3 13 -4
6 -1 5 7 -3 10 -12 139 -58 233 -83 6 -2 29 -13 51 -25 23 -11 44 -18 48 -15
3 4 6 2 6 -4 0 -6 15 -16 33 -24 17 -7 63 -32 100 -56 38 -24 73 -40 79 -37 6
4 8 3 5 -3 -4 -6 9 -23 28 -37 19 -15 35 -24 35 -21 0 19 181 -169 249 -258
30 -40 61 -71 69 -70 10 1 11 -2 4 -9 -7 -7 -4 -22 12 -47 51 -80 156 -336
156 -377 0 -7 5 -25 12 -41 6 -15 11 -31 10 -35 -1 -4 5 -51 13 -104 24 -161
19 -460 -11 -592 -3 -17 -1 -22 8 -16 7 4 5 -2 -4 -13 -10 -11 -18 -26 -18
-35 0 -53 -121 -356 -162 -405 -5 -7 -6 -18 -2 -24 4 -8 3 -9 -4 -5 -7 4 -12
2 -12 -4 0 -6 -18 -35 -40 -64 -23 -30 -39 -60 -38 -67 2 -8 -2 -13 -8 -12
-17 3 -76 -75 -68 -89 4 -6 3 -8 -3 -5 -5 3 -27 -11 -47 -32 -24 -24 -34 -41
-27 -45 6 -4 16 -4 21 -1 6 3 10 0 10 -7 0 -8 15 -22 33 -33 17 -10 64 -44
102 -74 39 -31 76 -56 82 -56 7 0 13 -5 14 -10 1 -18 42 -55 53 -48 6 3 8 2 3
-2 -4 -5 7 -24 25 -42 36 -37 62 -46 32 -10 l-19 22 22 -19 c13 -10 20 -23 17
-28 -7 -12 16 -39 27 -32 5 3 9 -1 9 -9 0 -14 26 -43 45 -49 5 -2 9 -8 7 -14
-3 -15 26 -39 47 -39 9 0 15 -8 14 -19 -2 -28 106 -181 128 -180 10 1 16 -3
13 -7 -3 -5 -10 -7 -15 -4 -19 12 -6 -13 59 -115 9 -14 17 -29 18 -35 7 -32
72 -163 78 -158 4 4 4 -1 0 -11 -6 -15 -4 -17 6 -11 9 5 11 4 6 -4 -4 -6 6
-51 23 -99 16 -48 42 -146 57 -217 26 -122 28 -146 28 -385 1 -211 -3 -271
-18 -350 -11 -52 -19 -105 -19 -117 1 -13 -2 -23 -6 -23 -11 0 -32 -100 -24
-113 3 -7 2 -9 -2 -4 -11 9 -77 -172 -68 -186 4 -6 1 -7 -7 -2 -10 6 -12 4 -7
-9 4 -9 3 -15 -2 -11 -5 3 -15 -12 -22 -32 -6 -21 -14 -42 -18 -48 -3 -5 -6
-19 -6 -30 0 -11 -6 -20 -12 -20 -7 0 -25 -22 -39 -50 -15 -27 -35 -62 -45
-77 -22 -30 -24 -42 -6 -32 6 4 10 5 7 1 -3 -3 -8 -5 -12 -4 -12 3 -58 -65
-51 -76 3 -6 1 -7 -5 -3 -12 7 -44 -33 -36 -46 3 -5 2 -7 -3 -6 -4 2 -10 -1
-12 -7 -6 -15 -84 -99 -186 -200 -120 -120 -200 -193 -190 -175 5 8 -9 -1 -31
-19 -21 -19 -38 -39 -36 -44 1 -5 -2 -6 -7 -2 -6 3 -31 -10 -56 -29 -52 -40
-205 -131 -287 -172 -31 -15 -55 -31 -52 -36 3 -4 -3 -5 -12 -1 -12 4 -15 3
-10 -5 5 -8 2 -10 -8 -6 -9 3 -16 1 -16 -6 0 -6 -4 -9 -9 -5 -5 3 -21 0 -36
-7 -19 -8 -22 -14 -13 -21 9 -6 8 -7 -5 -3 -16 5 -161 -46 -153 -55 2 -2 -5
-5 -17 -6 -12 0 -83 -20 -157 -42 -74 -23 -199 -55 -277 -71 -153 -31 -167
-35 -157 -52 4 -7 2 -8 -5 -4 -6 4 -9 12 -5 17 4 7 -7 8 -28 4 -150 -26 -263
-28 -1348 -32 l-1145 -4 0 3310 0 3311 1265 2 c696 2 1268 2 1271 1 3 -1 64
-7 135 -13z m2917 -19 c-4 -4 -11 -10 -14 -14 -4 -5 -6 3 -5 16 1 20 4 23 14
15 7 -6 9 -14 5 -17z m-7472 -24 c-10 -9 -11 -8 -5 6 3 10 9 15 12 12 3 -3 0
-11 -7 -18z m5291 -114 c-6 -2 -10 -9 -7 -14 4 -5 -1 -6 -10 -2 -13 5 -14 7
-3 14 7 5 18 8 23 8 6 0 4 -3 -3 -6z m128 -77 c0 -2 -7 -7 -16 -10 -8 -3 -12
-2 -9 4 6 10 25 14 25 6z m-5663 -93 c1 -22 -1 -24 -8 -10 -6 9 -7 22 -4 27 9
14 10 13 12 -17z m7956 -8 c-3 -9 -8 -14 -10 -11 -3 3 -2 9 2 15 9 16 15 13 8
-4z m-2118 -53 c-3 -3 -11 0 -18 7 -9 10 -8 11 6 5 10 -3 15 -9 12 -12z
m-5920 -61 c-9 -8 -36 -10 -30 -2 2 4 11 8 20 8 8 0 13 -3 10 -6z m8141 -3 c3
-4 -1 -5 -10 -4 -8 1 -18 5 -22 8 -3 4 1 5 10 4 8 -1 18 -5 22 -8z m-2133 -19
c-8 -8 -13 -7 -18 2 -5 8 -4 10 3 5 7 -4 12 -2 12 5 0 7 3 9 7 6 4 -4 2 -12
-4 -18z m151 -179 c-6 -6 -10 -3 -10 10 0 13 4 16 10 10 7 -7 7 -13 0 -20z
m153 -282 c-3 -8 -6 -5 -6 6 -1 11 2 17 5 13 3 -3 4 -12 1 -19z m-6652 -78 c3
-5 1 -10 -4 -10 -6 0 -11 5 -11 10 0 6 2 10 4 10 3 0 8 -4 11 -10z m-298 -722
c-3 -8 -6 -5 -6 6 -1 11 2 17 5 13 3 -3 4 -12 1 -19z m9390 0 c-3 -8 -6 -5 -6
6 -1 11 2 17 5 13 3 -3 4 -12 1 -19z m-2364 -93 c-3 -9 -8 -14 -10 -11 -3 3
-2 9 2 15 9 16 15 13 8 -4z m2454 -172 c-3 -10 -5 -4 -5 12 0 17 2 24 5 18 2
-7 2 -21 0 -30z m-2533 -133 c-5 -5 -10 3 -11 18 -1 22 0 24 9 8 6 -10 6 -22
2 -26z m-93 -193 c-10 -9 -11 -8 -5 6 3 10 9 15 12 12 3 -3 0 -11 -7 -18z m24
-17 c3 -5 1 -10 -4 -10 -6 0 -11 5 -11 10 0 6 2 10 4 10 3 0 8 -4 11 -10z
m-74 -77 c-12 -20 -14 -14 -5 12 4 9 9 14 11 11 3 -2 0 -13 -6 -23z m84 -483
c3 -6 -1 -7 -9 -4 -18 7 -21 14 -7 14 6 0 13 -4 16 -10z m243 -225 c-3 -3 -9
2 -12 12 -6 14 -5 15 5 6 7 -7 10 -15 7 -18z m379 -827 c-3 -7 -5 -2 -5 12 0
14 2 19 5 13 2 -7 2 -19 0 -25z m-7600 -675 c-3 -10 -5 -4 -5 12 0 17 2 24 5
18 2 -7 2 -21 0 -30z m9486 -253 c3 -11 1 -18 -4 -14 -5 3 -9 12 -9 20 0 20 7
17 13 -6z m-2190 -655 c-3 -9 -8 -14 -10 -11 -3 3 -2 9 2 15 9 16 15 13 8 -4z
m-6652 -508 c-10 -9 -11 -8 -5 6 3 10 9 15 12 12 3 -3 0 -11 -7 -18z m8283 7
c3 -8 2 -12 -4 -9 -6 3 -10 10 -10 16 0 14 7 11 14 -7z m-8198 -116 c3 -4 -1
-5 -10 -4 -8 1 -18 5 -22 8 -3 4 1 5 10 4 8 -1 18 -5 22 -8z m8139 3 c-9 -8
-36 -10 -30 -2 2 4 11 8 20 8 8 0 13 -3 10 -6z m-8059 -125 c0 -14 -5 -21 -9
-17 -4 4 -5 15 -1 24 9 24 12 21 10 -7z m7958 8 c3 -8 2 -12 -4 -9 -6 3 -10
10 -10 16 0 14 7 11 14 -7z m-134 -197 c0 -2 -9 -12 -19 -21 -14 -13 -21 -14
-27 -5 -4 7 -3 10 3 6 6 -4 16 0 23 8 12 14 20 19 20 12z m-3073 -113 c-3 -3
-12 -4 -19 -1 -8 3 -5 6 6 6 11 1 17 -2 13 -5z m2973 -8 c0 -2 -8 -10 -17 -17
-16 -13 -17 -12 -4 4 13 16 21 21 21 13z m-3203 -22 c-3 -3 -12 -4 -19 -1 -8
3 -5 6 6 6 11 1 17 -2 13 -5z m3038 -112 c-3 -3 -11 0 -18 7 -9 10 -8 11 6 5
10 -3 15 -9 12 -12z m-37 -83 c3 -12 2 -12 -6 0 -6 8 -15 10 -22 6 -9 -5 -11
-4 -6 4 10 15 28 10 34 -10z m-6998 -63 c0 -2 -7 -7 -16 -10 -8 -3 -12 -2 -9
4 6 10 25 14 25 6z m6925 -6 c3 -6 -1 -7 -9 -4 -18 7 -21 14 -7 14 6 0 13 -4
16 -10z m-6870 -70 l20 -25 -22 19 c-13 11 -23 24 -23 29 0 6 1 8 3 6 1 -2 11
-15 22 -29z m6750 -48 c-3 -3 -11 0 -18 7 -9 10 -8 11 6 5 10 -3 15 -9 12 -12z
m-155 -125 c0 -2 -10 -12 -22 -23 l-23 -19 19 23 c18 21 26 27 26 19z m-6150
-161 c0 -2 -7 -7 -16 -10 -8 -3 -12 -2 -9 4 6 10 25 14 25 6z m5925 -6 c3 -6
-1 -7 -9 -4 -18 7 -21 14 -7 14 6 0 13 -4 16 -10z m-5821 -79 c3 -5 -2 -15
-12 -22 -15 -12 -16 -12 -5 2 7 9 10 19 6 22 -3 4 -4 7 0 7 3 0 8 -4 11 -9z
m5703 2 c-4 -3 -1 -13 6 -22 11 -14 10 -14 -5 -2 -16 12 -16 31 -1 31 4 0 3
-3 0 -7z m-1240 -649 c-3 -3 -12 -4 -19 -1 -8 3 -5 6 6 6 11 1 17 -2 13 -5z
m-2910 -80 c-3 -3 -12 -4 -19 -1 -8 3 -5 6 6 6 11 1 17 -2 13 -5z m293 -79
c-14 -8 -29 -14 -35 -14 -5 0 1 6 15 14 14 8 30 14 35 14 6 0 -1 -6 -15 -14z
m2010 5 c8 -5 11 -10 5 -10 -5 0 -17 5 -25 10 -8 5 -10 10 -5 10 6 0 17 -5 25
-10z m-53 -6 c-3 -3 -12 -4 -19 -1 -8 3 -5 6 6 6 11 1 17 -2 13 -5z"/>
<path d="M4070 6230 c0 -687 4 -1210 9 -1210 16 0 33 28 21 35 -5 3 -10 12
-10 18 0 8 4 7 9 -2 8 -12 12 -13 25 -2 9 8 15 21 14 30 -2 9 2 15 8 14 6 -1
22 9 34 22 20 21 21 27 9 42 -13 16 -12 17 4 4 15 -12 22 -10 58 14 30 21 37
31 27 38 -9 6 -7 7 6 3 11 -4 33 3 55 16 59 37 114 68 151 84 19 9 58 26 85
39 28 12 61 26 74 30 19 6 21 9 10 17 -10 7 -9 8 6 4 24 -7 168 47 158 59 -5
4 -2 5 5 1 13 -8 144 33 150 47 2 4 8 5 13 2 5 -3 19 0 31 7 13 7 26 11 31 10
4 -1 55 16 115 37 59 21 117 42 130 46 20 6 21 9 10 23 -11 15 -11 15 3 4 18
-14 30 -11 122 32 29 13 77 34 107 46 30 13 60 27 65 30 6 4 37 22 70 40 119
66 140 79 138 88 -1 6 4 13 13 16 10 4 13 2 8 -6 -10 -15 76 44 156 108 73 58
186 178 231 245 41 60 93 171 116 244 14 48 18 92 17 215 0 141 -3 162 -27
229 -14 41 -30 77 -35 80 -5 3 -12 19 -16 34 -4 18 -11 25 -19 21 -7 -4 -9 -4
-5 1 10 11 -11 47 -23 40 -5 -4 -8 -2 -7 3 5 16 -42 73 -54 66 -6 -4 -8 -3 -5
3 8 12 -36 54 -106 101 -34 24 -47 28 -56 19 -10 -9 -11 -8 -6 5 7 18 -22 32
-48 23 -8 -4 -18 -2 -22 4 -4 7 1 9 12 6 46 -13 -50 27 -107 44 -122 37 -212
41 -997 41 l-763 0 0 -1210z m1710 1176 c0 -2 -7 -7 -16 -10 -8 -3 -12 -2 -9
4 6 10 25 14 25 6z m415 -284 c-3 -3 -11 0 -18 7 -9 10 -8 11 6 5 10 -3 15 -9
12 -12z m-184 -1069 c13 -16 12 -17 -3 -4 -10 7 -18 15 -18 17 0 8 8 3 21 -13z
m-726 -403 c-3 -5 -12 -10 -18 -10 -7 0 -6 4 3 10 19 12 23 12 15 0z m-1020
-398 c-3 -3 -11 0 -18 7 -9 10 -8 11 6 5 10 -3 15 -9 12 -12z"/>
<path d="M7390 5140 c0 -5 5 -10 10 -10 6 0 10 5 10 10 0 6 -4 10 -10 10 -5 0
-10 -4 -10 -10z"/>
<path d="M6072 5074 c-45 -22 -79 -44 -75 -49 5 -4 2 -5 -5 -1 -7 4 -23 1 -35
-7 -12 -8 -49 -26 -82 -39 -184 -78 -321 -134 -410 -169 -55 -22 -115 -46
-133 -54 -18 -8 -37 -15 -43 -15 -5 0 -26 -7 -47 -16 -20 -10 -44 -18 -52 -20
-8 -2 -23 -7 -35 -13 -11 -6 -42 -17 -70 -25 -124 -37 -215 -72 -208 -80 4 -5
3 -6 -3 -3 -17 10 -86 -21 -78 -35 4 -7 3 -8 -4 -4 -11 7 -100 -35 -154 -72
-25 -17 -26 -19 -12 -34 15 -15 14 -17 -6 -28 -12 -6 -24 -9 -28 -6 -3 3 0 6
7 6 7 0 9 4 6 10 -4 6 1 7 12 4 17 -5 16 -4 -1 10 -17 14 -22 13 -64 -17 -72
-51 -163 -138 -155 -150 3 -5 1 -7 -5 -3 -5 3 -35 -22 -66 -56 -42 -46 -55
-67 -50 -82 4 -15 3 -17 -4 -7 -7 10 -16 3 -39 -30 -64 -93 -153 -304 -139
-328 4 -5 0 -11 -6 -13 -10 -4 -14 -133 -16 -597 l-3 -592 618 4 c625 4 677 7
880 46 169 33 394 107 371 123 -9 7 -6 7 9 3 22 -6 170 60 205 92 10 9 18 13
18 10 0 -9 71 36 168 108 49 36 80 65 77 73 -3 7 0 10 6 7 13 -9 62 38 160
155 61 71 79 101 76 118 -3 16 -1 20 7 12 9 -6 17 0 29 20 10 16 18 32 17 35
0 3 7 16 16 30 9 13 13 29 9 35 -4 6 -1 9 6 8 16 -4 86 201 105 307 16 94 18
292 3 385 -16 101 -51 220 -62 213 -6 -3 -7 -1 -3 6 9 13 -2 51 -14 51 -4 0
-6 -10 -4 -22 4 -21 4 -21 -5 -3 -5 12 -5 24 0 30 13 13 11 27 -3 19 -6 -4 -8
-3 -4 4 9 14 -12 65 -24 57 -6 -3 -7 1 -4 10 4 8 -2 27 -11 41 -14 21 -19 24
-26 13 -7 -10 -8 -6 -4 11 5 20 -8 46 -64 125 -85 122 -175 220 -192 209 -8
-5 -10 -3 -4 6 8 13 -2 23 -107 105 -57 45 -75 55 -62 33 4 -7 3 -8 -5 -4 -6
4 -9 12 -6 17 6 9 -57 52 -71 49 -4 -1 -10 2 -13 7 -3 4 -43 -10 -89 -33z
m313 -144 c3 -5 1 -10 -4 -10 -6 0 -11 5 -11 10 0 6 2 10 4 10 3 0 8 -4 11
-10z m-645 -30 c-8 -5 -19 -10 -25 -10 -5 0 -3 5 5 10 8 5 20 10 25 10 6 0 3
-5 -5 -10z m40 -4 c0 -2 -7 -7 -16 -10 -8 -3 -12 -2 -9 4 6 10 25 14 25 6z
m701 -79 c-10 -9 -11 -8 -5 6 3 10 9 15 12 12 3 -3 0 -11 -7 -18z m-904 -3
c-3 -3 -12 -4 -19 -1 -8 3 -5 6 6 6 11 1 17 -2 13 -5z m1093 -250 c0 -8 -19
-13 -24 -6 -3 5 1 9 9 9 8 0 15 -2 15 -3z m-1905 -53 c3 -5 0 -13 -6 -17 -7
-4 -9 -3 -5 4 3 5 0 13 -6 15 -9 4 -10 6 -1 6 6 1 14 -3 18 -8z m-370 -340
c-3 -6 -11 -11 -16 -11 -5 0 -4 6 3 14 14 16 24 13 13 -3z m-87 -56 c-3 -3 -9
2 -12 12 -6 14 -5 15 5 6 7 -7 10 -15 7 -18z m-62 -33 c-17 -16 -18 -16 -5 5
7 12 15 20 18 17 3 -2 -3 -12 -13 -22z m2104 -1076 c0 -2 -7 -7 -16 -10 -8 -3
-12 -2 -9 4 6 10 25 14 25 6z m10 -24 c0 -4 -10 -13 -22 -21 -23 -14 -23 -14
-4 8 20 22 26 25 26 13z m-131 -106 c-2 -2 -15 -9 -29 -15 -24 -11 -24 -11 -6
3 16 13 49 24 35 12z m-224 -95 c3 -5 2 -12 -3 -15 -5 -3 -9 1 -9 9 0 17 3 19
12 6z m-672 -178 c-7 -2 -19 -2 -25 0 -7 3 -2 5 12 5 14 0 19 -2 13 -5z"/>
</g>
</svg>
